<svg width="20" height="20" viewBox="0 0 20 20" fill="none" xmlns="http://www.w3.org/2000/svg">
  <path fill-rule="evenodd" clip-rule="evenodd"
        d="M17.3389 6.35305L16.8202 5.45298C16.3814 4.69138 15.409 4.42864 14.6463 4.86564V4.86564C14.2833 5.07949 13.8501 5.14017 13.4423 5.03428C13.0345 4.92839 12.6855 4.66464 12.4724 4.30118C12.3353 4.07016 12.2616 3.80704 12.2588 3.53841V3.53841C12.2712 3.10773 12.1087 2.69038 11.8084 2.38143C11.5081 2.07249 11.0955 1.89826 10.6646 1.89844H9.61962C9.19751 1.89843 8.7928 2.06664 8.49504 2.36583C8.19728 2.66502 8.03102 3.07053 8.03305 3.49264V3.49264C8.02054 4.36415 7.31044 5.06405 6.43885 5.06396C6.17022 5.06117 5.90709 4.98749 5.67607 4.85038V4.85038C4.91343 4.41339 3.94097 4.67612 3.50216 5.43772L2.94533 6.35305C2.50705 7.1137 2.76621 8.08555 3.52504 8.52697V8.52697C4.01829 8.81174 4.32215 9.33803 4.32215 9.90759C4.32215 10.4771 4.01829 11.0034 3.52504 11.2882V11.2882C2.76717 11.7267 2.50773 12.6961 2.94533 13.4545V13.4545L3.47165 14.3622C3.67725 14.7332 4.02221 15.007 4.4302 15.1229C4.83819 15.2389 5.27557 15.1875 5.64556 14.9801V14.9801C6.00927 14.7678 6.4427 14.7097 6.84949 14.8185C7.25628 14.9274 7.60274 15.1942 7.81184 15.5598C7.94896 15.7908 8.02263 16.0539 8.02542 16.3225V16.3225C8.02542 17.203 8.73917 17.9167 9.61962 17.9167H10.6646C11.5421 17.9168 12.2546 17.2076 12.2588 16.3302V16.3302C12.2568 15.9067 12.4241 15.5001 12.7235 15.2006C13.0229 14.9012 13.4296 14.7339 13.853 14.736C14.121 14.7431 14.3831 14.8165 14.6158 14.9495V14.9495C15.3765 15.3878 16.3483 15.1287 16.7897 14.3698V14.3698L17.3389 13.4545C17.5515 13.0896 17.6098 12.655 17.501 12.247C17.3922 11.839 17.1252 11.4912 16.7592 11.2806V11.2806C16.3932 11.07 16.1262 10.7222 16.0174 10.3142C15.9086 9.90613 15.9669 9.47156 16.1795 9.10668C16.3177 8.86532 16.5179 8.66521 16.7592 8.52697V8.52697C17.5135 8.08579 17.772 7.11962 17.3389 6.36068V6.36068V6.35305Z"
        stroke="url(#paint0_linear_430_213)" stroke-width="1.2" stroke-linecap="round" stroke-linejoin="round"/>
  <circle cx="10.146" cy="9.90749" r="2.1968" stroke="url(#paint1_linear_430_213)" stroke-width="1.2"
          stroke-linecap="round" stroke-linejoin="round"/>
  <defs>
    <linearGradient id="paint0_linear_430_213" x1="17.5546" y1="17.9167" x2="-2.21755" y2="16.501"
                    gradientUnits="userSpaceOnUse">
      <stop stop-color="#92A3FD"/>
      <stop offset="1" stop-color="#9DCEFF"/>
    </linearGradient>
    <linearGradient id="paint1_linear_430_213" x1="12.3428" y1="12.1043" x2="6.48706" y2="11.6512"
                    gradientUnits="userSpaceOnUse">
      <stop stop-color="#92A3FD"/>
      <stop offset="1" stop-color="#9DCEFF"/>
    </linearGradient>
  </defs>
</svg>
